<svg version="1.2" xmlns="http://www.w3.org/2000/svg" viewBox="0 0 551 179" width="551" height="179">
	<title>Nouveau projet</title>
	<style>
		.s0 { fill: #000000 } 
		.s1 { fill: #ff0000 } 
	</style>
	<path id="TRIP" class="s0" aria-label="TRIP"  d="m169.8 179h-36.8v-111h-44.8v-30h126.4v30h-44.8z"/>
	<path id="TRIP" class="s1" aria-label="TRIP"  d="m265.4 179h-36.8v-141h67.8q24 0 37 11.8 13.2 11.6 13.2 32.4 0 15.8-8 26.6-7.8 10.6-22.8 14.8 11.2 3 18 15.4l22 40h-40.4l-24.4-44.8q-2.4-4.2-6.2-6-3.6-1.8-8.4-1.8h-11zm0-112.8v34.2h24.4q21.8 0 21.8-17.2 0-17-21.8-17zm141.2 112.8h-36.8v-141h36.8zm62.4 0h-36.8v-141h67.8q24 0 37 12.4 13.2 12.2 13.2 33.8 0 21.6-13.2 34-13 12.2-37 12.2h-31zm0-112.8v36h24.6q21.6 0 21.6-18 0-18-21.6-18z"/>
	<path id="The Never Ending" class="s0" aria-label="The Never Ending"  d="m14.8 32h-2.8v-29.3l-11.9 0.1v-2.5h26.5v2.5h-11.8zm18.3 0h-2.8v-31.8h2.8v13.7q1.1-2.1 3.1-3.1 2-1.1 4.4-1.1 7.8 0 7.8 8.5v13.8h-2.7v-13.6q0-3.2-1.3-4.8-1.3-1.5-4.2-1.5-3.2 0-5.2 2-1.9 2-1.9 5.4zm31.9 0.3q-5 0-7.9-2.9-2.9-3-2.9-8.3 0-3.3 1.3-5.9 1.3-2.6 3.6-4 2.3-1.4 5.3-1.4 4.4 0 6.8 2.8 2.5 2.8 2.5 7.8v1.2h-16.8q0.1 4.1 2.2 6.3 2.1 2.2 5.8 2.2 2.1 0 3.8-0.7 1.8-0.6 3.5-2.1l1.1 2.1q-1.4 1.4-3.7 2.2-2.2 0.7-4.6 0.7zm-0.5-20.3q-3.4 0-5.4 2.1-1.9 2.1-2.2 5.5h14.3q-0.1-3.6-1.8-5.6-1.7-2-4.9-2zm29.1 20h-2.5v-31.7h2.2l20.1 27v-27h2.5v31.7h-2.1l-20.2-27.1zm39.6 0.4q-5.1 0-8-3-2.9-3-2.9-8.2 0-3.4 1.3-6 1.3-2.6 3.6-4 2.4-1.4 5.4-1.4 4.3 0 6.8 2.8 2.4 2.8 2.4 7.8v1.2h-16.8q0.1 4.1 2.2 6.3 2.1 2.2 5.9 2.2 2 0 3.7-0.7 1.8-0.6 3.6-2.1l1 2.1q-1.4 1.4-3.7 2.2-2.2 0.8-4.5 0.8zm-0.6-20.4q-3.4 0-5.3 2.1-1.9 2.1-2.2 5.5h14.2q-0.1-3.6-1.8-5.6-1.7-2-4.9-2zm23.7 20h-2.7l-9.4-21.8h3.1l7.7 18.8 7.8-18.8h2.9zm22.9 0.3q-5 0-8-2.9-2.8-3.1-2.8-8.3 0-3.3 1.3-5.9 1.3-2.6 3.6-4 2.3-1.5 5.3-1.5 4.4 0 6.8 2.9 2.4 2.8 2.4 7.8v1.2h-16.8q0.2 4.1 2.3 6.3 2.1 2.1 5.8 2.1 2 0 3.8-0.6 1.8-0.6 3.5-2.1l1.1 2.1q-1.5 1.4-3.7 2.2-2.3 0.7-4.6 0.7zm-0.5-20.4q-3.5 0-5.4 2.2-1.9 2.1-2.2 5.5h14.3q-0.1-3.6-1.8-5.6-1.7-2.1-4.9-2.1zm17.5 20.1h-2.8v-21.9h2.7v4q1-2.1 2.8-3.1 1.8-1.1 4.5-1.3l1.2-0.1 0.2 2.4-1.9 0.2q-3.2 0.3-4.9 2.1-1.8 1.8-1.8 4.9zm44 0h-19.6v-31.7h19.6v2.3h-16.9v12.1h15.9v2.4h-15.9v12.5h16.9zm8.6 0h-2.8v-21.8h2.7v3.9q1.1-2.2 3.1-3.2 2.1-1.1 4.5-1.1 7.8 0 7.8 8.4v13.8h-2.7v-13.5q0-3.3-1.3-4.8-1.3-1.5-4.2-1.5-3.2 0-5.2 2-1.9 2-1.9 5.3zm30.7 0.4q-2.9 0-5.1-1.3-2.1-1.4-3.4-4-1.1-2.5-1.1-6 0-5.2 2.6-8.2 2.6-3.1 7-3.1 2.7 0 4.6 1.2 2.1 1.2 3 3.3v-14h2.8v31.7h-2.7v-4.1q-1 2.1-3 3.3-2 1.2-4.7 1.2zm0.4-2.3q3.3 0 5.3-2.3 2-2.4 2-6.7 0-4.3-2-6.6-2-2.4-5.3-2.4-3.3 0-5.3 2.4-1.9 2.3-1.9 6.6 0 4.3 1.9 6.7 2 2.3 5.3 2.3zm20.4-25.6h-3.7v-3.5h3.7zm-0.5 27.6h-2.7v-21.8h2.7zm10 0h-2.7v-21.9h2.7v3.9q1.1-2.1 3.1-3.2 2-1.1 4.5-1.1 7.8 0 7.8 8.5v13.8l-2.8-0.1v-13.5q0-3.2-1.3-4.8-1.3-1.5-4.1-1.5-3.3 0-5.2 2-2 2-2 5.4zm32 8.4q-5.7 0-9.5-3l1-2q2.1 1.4 4 2.1 2 0.6 4.4 0.6 3.3 0 5-1.7 1.7-1.9 1.7-5.3v-4.2q-0.9 2.2-3 3.4-2 1.2-4.7 1.2-3 0-5.2-1.4-2.2-1.4-3.4-3.8-1.2-2.5-1.2-5.7 0-3.2 1.2-5.7 1.2-2.4 3.4-3.8 2.2-1.3 5.2-1.3 2.7 0 4.7 1.2 2 1.2 3 3.3v-4.1h2.7v20.5q0 9.7-9.3 9.7zm-0.7-11.3q3.3 0 5.3-2.2 2-2.4 2-6.3 0-3.9-2-6.2-2-2.3-5.3-2.3-3.5 0-5.4 2.3-2 2.3-2 6.2 0 3.9 2 6.3 1.9 2.2 5.4 2.2z"/>
</svg>